<svg width="1280" height="720" xmlns="http://www.w3.org/2000/svg" xmlns:xlink="http://www.w3.org/1999/xlink" overflow="hidden"><defs><clipPath id="clip0"><rect x="0" y="0" width="1280" height="720"/></clipPath></defs><g clip-path="url(#clip0)"><rect x="0" y="0" width="1280" height="720" fill="#FFFFFF"/><path d="M351.5 264C351.5 210.705 396.719 167.5 452.5 167.5 508.281 167.5 553.5 210.705 553.5 264 553.5 317.296 508.281 360.5 452.5 360.5 396.719 360.5 351.5 317.296 351.5 264Z" stroke="#2F528F" stroke-width="1.33333" stroke-miterlimit="8" fill="#0070C0" fill-rule="evenodd" fill-opacity="0.501961"/><text fill="#FFFFFF" font-family="Cambria Math,Cambria Math_MSFontService,sans-serif" font-weight="400" font-size="24" transform="translate(407.993 258)">∑</text><path d="M486.808 240.393C489.09 240.995 490.842 242.293 492.064 244.29 493.287 246.286 493.898 248.694 493.898 251.514 493.898 254.342 493.289 256.75 492.07 258.739 490.851 260.727 489.097 262.022 486.808 262.624L486.527 261.721C488.332 261.12 489.674 259.932 490.552 258.159 491.431 256.385 491.871 254.131 491.871 251.397 491.871 248.756 491.433 246.563 490.558 244.817 489.683 243.071 488.328 241.897 486.492 241.295ZM434.193 240.393 434.509 241.295C432.681 241.897 431.327 243.071 430.448 244.817 429.569 246.563 429.13 248.756 429.13 251.397 429.13 254.131 429.569 256.385 430.448 258.159 431.327 259.932 432.669 261.12 434.474 261.721L434.193 262.624C431.903 262.022 430.15 260.727 428.931 258.739 427.712 256.75 427.103 254.342 427.103 251.514 427.103 248.694 427.714 246.286 428.937 244.29 430.159 242.293 431.911 240.995 434.193 240.393Z" fill="#FFFFFF" fill-rule="evenodd"/><text fill="#FFFFFF" font-family="Cambria Math,Cambria Math_MSFontService,sans-serif" font-weight="400" font-size="24" transform="translate(434.953 258)">𝑊</text><text fill="#FFFFFF" font-family="Cambria Math,Cambria Math_MSFontService,sans-serif" font-weight="400" font-size="16" transform="translate(457.787 263)">𝑖</text><text fill="#FFFFFF" font-family="Cambria Math,Cambria Math_MSFontService,sans-serif" font-weight="400" font-size="16" transform="translate(463.547 268)"></text><text fill="#FFFFFF" font-family="Cambria Math,Cambria Math_MSFontService,sans-serif" font-weight="400" font-size="24" transform="translate(467.047 258)">𝑋</text><text fill="#FFFFFF" font-family="DengXian,DengXian_MSFontService,sans-serif" font-weight="400" font-size="16" transform="translate(482.547 263)">i</text><text fill="#FFFFFF" font-family="Cambria Math,Cambria Math_MSFontService,sans-serif" font-weight="400" font-size="24" transform="translate(407.993 286)">+</text><text fill="#FFFFFF" font-family="Cambria Math,Cambria Math_MSFontService,sans-serif" font-weight="400" font-size="24" transform="translate(431.327 286)">𝑏𝑖𝑎𝑠</text><path d="M119.5 167.5C119.5 154.245 130.693 143.5 144.5 143.5 158.307 143.5 169.5 154.245 169.5 167.5 169.5 180.755 158.307 191.5 144.5 191.5 130.693 191.5 119.5 180.755 119.5 167.5Z" stroke="#2F528F" stroke-width="1.33333" stroke-miterlimit="8" fill="#4472C4" fill-rule="evenodd" fill-opacity="0.501961"/><text fill="#FFFFFF" font-family="DengXian,DengXian_MSFontService,sans-serif" font-weight="400" font-size="19" transform="translate(136.667 173)">x</text><text fill="#FFFFFF" font-family="DengXian,DengXian_MSFontService,sans-serif" font-weight="400" font-size="12" transform="translate(144.833 177)">1</text><path d="M119.5 247.5C119.5 234.245 130.693 223.5 144.5 223.5 158.307 223.5 169.5 234.245 169.5 247.5 169.5 260.755 158.307 271.5 144.5 271.5 130.693 271.5 119.5 260.755 119.5 247.5Z" stroke="#2F528F" stroke-width="1.33333" stroke-miterlimit="8" fill="#4472C4" fill-rule="evenodd" fill-opacity="0.501961"/><text fill="#FFFFFF" font-family="DengXian,DengXian_MSFontService,sans-serif" font-weight="400" font-size="19" transform="translate(136.667 253)">x</text><text fill="#FFFFFF" font-family="DengXian,DengXian_MSFontService,sans-serif" font-weight="400" font-size="12" transform="translate(144.833 257)">2</text><path d="M119.5 327.5C119.5 314.245 130.693 303.5 144.5 303.5 158.307 303.5 169.5 314.245 169.5 327.5 169.5 340.755 158.307 351.5 144.5 351.5 130.693 351.5 119.5 340.755 119.5 327.5Z" stroke="#2F528F" stroke-width="1.33333" stroke-miterlimit="8" fill="#4472C4" fill-rule="evenodd" fill-opacity="0.501961"/><text fill="#FFFFFF" font-family="DengXian,DengXian_MSFontService,sans-serif" font-weight="400" font-size="19" transform="translate(136.667 333)">x</text><text fill="#FFFFFF" font-family="DengXian,DengXian_MSFontService,sans-serif" font-weight="400" font-size="12" transform="translate(144.833 337)">3</text><path d="M119.5 404.5C119.5 391.245 130.693 380.5 144.5 380.5 158.307 380.5 169.5 391.245 169.5 404.5 169.5 417.755 158.307 428.5 144.5 428.5 130.693 428.5 119.5 417.755 119.5 404.5Z" stroke="#2F528F" stroke-width="1.33333" stroke-miterlimit="8" fill="#4472C4" fill-rule="evenodd" fill-opacity="0.501961"/><text fill="#FFFFFF" font-family="DengXian,DengXian_MSFontService,sans-serif" font-weight="400" font-size="19" transform="translate(136.5 410)">x</text><text fill="#FFFFFF" font-family="DengXian,DengXian_MSFontService,sans-serif" font-weight="400" font-size="12" transform="translate(144.667 414)">n</text><path d="M169.656 167.206 345.766 260.583 345.454 261.172 169.344 167.795ZM346.306 256.719 351.5 264 342.558 263.786Z" fill="#4472C4"/><path d="M169.53 247.168 344.891 263.066 344.831 263.73 169.47 247.832ZM343.894 259.294 351.5 264 343.172 267.261Z" fill="#4472C4"/><path d="M0.109809-0.314727 175.815 60.9889 175.595 61.6183-0.109809 0.314727ZM175.764 57.0878 182 63.4999 173.129 64.6413Z" fill="#4472C4" transform="matrix(1 0 0 -1 169.5 328)"/><path d="M0.203692-0.263857 176.927 136.162 176.519 136.69-0.203692 0.263857ZM178.112 132.445 182 140.5 173.223 138.778Z" fill="#4472C4" transform="matrix(1 0 0 -1 169.5 405)"/><text font-family="DengXian,DengXian_MSFontService,sans-serif" font-weight="400" font-size="24" transform="translate(257.116 207)">w</text><text font-family="DengXian,DengXian_MSFontService,sans-serif" font-weight="400" font-size="16" transform="translate(273.949 212)">1</text><text font-family="DengXian,DengXian_MSFontService,sans-serif" font-weight="400" font-size="24" transform="translate(220.424 246)">w</text><text font-family="DengXian,DengXian_MSFontService,sans-serif" font-weight="400" font-size="16" transform="translate(237.258 251)">2</text><text font-family="DengXian,DengXian_MSFontService,sans-serif" font-weight="400" font-size="24" transform="translate(202.661 296)">w</text><text font-family="DengXian,DengXian_MSFontService,sans-serif" font-weight="400" font-size="16" transform="translate(219.494 301)">3</text><text font-family="DengXian,DengXian_MSFontService,sans-serif" font-weight="400" font-size="24" transform="translate(251.837 365)">w</text><text font-family="DengXian,DengXian_MSFontService,sans-serif" font-weight="400" font-size="16" transform="translate(268.67 370)">n</text><path d="M631.5 261.5C631.5 234.99 652.99 213.5 679.5 213.5 706.01 213.5 727.5 234.99 727.5 261.5 727.5 288.01 706.01 309.5 679.5 309.5 652.99 309.5 631.5 288.01 631.5 261.5Z" stroke="#2F528F" stroke-width="1.33333" stroke-miterlimit="8" fill="#F4B183" fill-rule="evenodd"/><text fill="#FFFFFF" font-family="DengXian,DengXian_MSFontService,sans-serif" font-weight="400" font-size="24" transform="translate(672.417 268)">Y</text><path d="M0.0116379-0.33313 71.3493 2.15905 71.326 2.82531-0.0116379 0.33313ZM70.1447-1.55194 78.0002 2.72493 69.8654 6.44319Z" fill="#4472C4" transform="matrix(1 0 0 -1 553.5 264.225)"/></g></svg>